<svg xmlns="http://www.w3.org/2000/svg" width="340" height="200" viewBox="0 0 340 200"><rect width="100%" height="100%" fill="#DDDDDD"/><path fill="#999999" d="M97.025 79.03v34.13h-6.82l-13.78-23.32-.14.02v23.3h-6.84V79.03h6.84l13.78 23.3.14-.02V79.03zm4.78 21.71v-.49q0-5.68 3.17-9.3 3.16-3.62 8.76-3.62 5.63 0 8.81 3.61 3.19 3.61 3.19 9.31v.49q0 5.72-3.17 9.31-3.18 3.6-8.78 3.6-5.63 0-8.8-3.6-3.18-3.59-3.18-9.31m6.82-.49v.49q0 3.47 1.22 5.56 1.22 2.1 3.94 2.1 2.65 0 3.88-2.11t1.23-5.55v-.49q0-3.38-1.24-5.51-1.25-2.13-3.92-2.13-2.65 0-3.88 2.14t-1.23 5.5m40.48-12.45v25.36h-6.84V87.8zm0-11.2v5.13h-6.84V76.6zm5.62 11.2h6.36l.28 3.35q1.22-1.83 3.06-2.82 1.84-1 4.25-1 2.44 0 4.17 1.08 1.74 1.08 2.63 3.26 1.17-2.04 3.04-3.19 1.88-1.15 4.41-1.15 3.75 0 5.92 2.59t2.17 7.89v15.35h-6.85V97.78q0-2.88-.94-4-.93-1.13-2.78-1.13-1.46 0-2.52.65-1.07.64-1.7 1.79 0 .44.02.76t.02.65v16.66h-6.82V97.78q0-2.81-.93-3.97-.94-1.16-2.82-1.16-1.38 0-2.42.53-1.05.53-1.73 1.49v18.49h-6.82zm63.26 25.36h-6.84q-.38-.87-.65-1.83t-.38-1.97q-1.06 1.85-2.78 3.07t-4.11 1.22q-3.99 0-6.14-2.05-2.16-2.05-2.16-5.59 0-3.73 2.87-5.78t8.38-2.05h3.82v-2.01q0-1.83-.96-2.84t-2.84-1.01q-1.66 0-2.56.81-.91.81-.91 2.24l-6.6-.02-.03-.14q-.16-3.21 2.79-5.55 2.95-2.33 7.76-2.33 4.55 0 7.38 2.31 2.84 2.31 2.84 6.57v10.48q0 1.78.27 3.35t.85 3.12m-13.1-4.57q1.81 0 3.21-.89 1.41-.89 1.9-2.06v-3.59h-3.82q-2.18 0-3.3 1.09-1.13 1.09-1.13 2.64 0 1.26.84 2.04.85.77 2.3.77m16.1-7.41v-.49q0-6 2.62-9.68 2.61-3.68 7.32-3.68 2.13 0 3.75.96t2.77 2.74l.53-3.23h5.91v25.24q0 4.95-3.25 7.66-3.24 2.7-9.03 2.7-1.92 0-4.08-.53-2.15-.52-3.98-1.44l1.26-5.11q1.57.75 3.2 1.14t3.55.39q2.82 0 4.14-1.17 1.32-1.18 1.32-3.66v-2.3q-1.12 1.43-2.64 2.18-1.53.75-3.5.75-4.66 0-7.27-3.43-2.62-3.44-2.62-9.04m6.85-.49v.49q0 3.33 1.12 5.24 1.13 1.91 3.66 1.91 1.57 0 2.66-.57 1.09-.58 1.74-1.68V95.07q-.65-1.15-1.74-1.79-1.09-.63-2.62-.63-2.5 0-3.66 2.23t-1.16 5.81m32.53 12.96q-5.49 0-8.77-3.51-3.28-3.52-3.28-8.93v-.94q0-5.65 3.11-9.31 3.1-3.65 8.33-3.63 5.13 0 7.97 3.1 2.83 3.09 2.83 8.36v3.73h-15.14l-.04.14q.18 2.51 1.67 4.12 1.49 1.62 4.04 1.62 2.28 0 3.78-.45 1.5-.46 3.28-1.45l1.85 4.22q-1.55 1.27-4.05 2.1-2.51.83-5.58.83m-.61-21.04q-1.9 0-3 1.45t-1.36 3.82l.07.12h8.39v-.61q0-2.18-1.02-3.48t-3.08-1.3"/></svg>