<svg xmlns="http://www.w3.org/2000/svg" width="370" height="200" viewBox="0 0 370 200"><rect width="100%" height="100%" fill="#DDDDDD"/><path fill="#999999" d="M101.39 76.545h6.28v38.32h-3.66q-.84 0-1.41-.28t-1.1-.94l-20.01-25.55q.16 1.75.16 3.24v23.53h-6.28v-38.32h3.73q.46 0 .79.04t.58.16q.25.12.49.34.24.23.53.6l20.09 25.65q-.08-.93-.14-1.83-.05-.9-.05-1.67v-23.29Zm25.81 10.71q3.02 0 5.5.98t4.24 2.78q1.76 1.8 2.72 4.4.95 2.6.95 5.8 0 3.24-.95 5.83-.96 2.6-2.72 4.43-1.76 1.83-4.24 2.81-2.48.98-5.5.98-3.05 0-5.54-.98t-4.25-2.81q-1.76-1.83-2.73-4.43-.97-2.59-.97-5.83 0-3.2.97-5.8.97-2.6 2.73-4.4 1.76-1.8 4.25-2.78 2.49-.98 5.54-.98Zm0 22.97q3.39 0 5.02-2.28 1.63-2.28 1.63-6.67 0-4.4-1.63-6.71-1.63-2.3-5.02-2.3-3.44 0-5.1 2.31-1.66 2.32-1.66 6.7 0 4.37 1.66 6.66t5.1 2.29Zm31.51-22.55h6.57v27.19h-6.57v-27.19Zm7.47-7.92q0 .85-.34 1.59-.35.74-.92 1.3-.57.55-1.33.88-.77.34-1.65.34-.84 0-1.6-.34-.76-.33-1.31-.88-.56-.56-.89-1.3-.33-.74-.33-1.59 0-.88.33-1.65.33-.76.89-1.32.55-.56 1.31-.89.76-.33 1.6-.33.88 0 1.65.33.76.33 1.33.89.57.56.92 1.32.34.77.34 1.65Zm12.33 35.11h-6.55v-27.19h4q1.27 0 1.67 1.19l.43 2.02q.71-.8 1.49-1.46.78-.66 1.67-1.14.89-.48 1.91-.75 1.02-.28 2.24-.28 2.57 0 4.23 1.39 1.65 1.39 2.47 3.7.64-1.36 1.59-2.32.96-.97 2.1-1.58 1.14-.61 2.42-.9 1.29-.29 2.59-.29 2.25 0 4 .69t2.94 2.01q1.19 1.32 1.81 3.23.63 1.91.63 4.38v17.3h-6.55v-17.3q0-2.6-1.14-3.91t-3.34-1.31q-1 0-1.87.34-.86.34-1.51.99-.65.65-1.02 1.63-.37.98-.37 2.26v17.3h-6.57v-17.3q0-2.73-1.1-3.98-1.1-1.24-3.22-1.24-1.43 0-2.66.7-1.23.7-2.29 1.92v19.9Zm52.2-7.02v-4.59q-2.83.14-4.77.49-1.93.36-3.1.92-1.17.55-1.67 1.3-.5.74-.5 1.61 0 1.73 1.02 2.47 1.02.74 2.66.74 2.01 0 3.49-.73 1.47-.73 2.87-2.21Zm-13.83-14.29-1.17-2.09q4.69-4.29 11.29-4.29 2.39 0 4.27.78 1.88.78 3.18 2.17 1.3 1.39 1.97 3.33.68 1.93.68 4.24v17.17h-2.97q-.93 0-1.43-.28-.51-.28-.8-1.12l-.58-1.97q-1.03.93-2.01 1.63-.98.71-2.04 1.18-1.06.48-2.27.73t-2.66.25q-1.73 0-3.18-.46-1.46-.46-2.52-1.39-1.06-.93-1.64-2.31-.59-1.37-.59-3.2 0-1.04.35-2.06.34-1.02 1.12-1.94.79-.93 2.03-1.75 1.25-.82 3.06-1.43 1.82-.61 4.23-1 2.41-.38 5.51-.46v-1.59q0-2.73-1.17-4.04-1.16-1.31-3.36-1.31-1.59 0-2.64.37-1.04.37-1.84.83l-1.44.84q-.65.37-1.45.37-.69 0-1.16-.36-.48-.36-.77-.84Zm36.3 7.05q1.22 0 2.12-.33.9-.33 1.5-.91.6-.59.9-1.41.31-.82.31-1.8 0-2.01-1.21-3.19-1.21-1.18-3.62-1.18t-3.61 1.18q-1.21 1.18-1.21 3.19 0 .96.3 1.78.31.82.91 1.41.59.6 1.51.93.91.33 2.1.33Zm7.4 15.48q0-.8-.48-1.3t-1.3-.78q-.82-.28-1.92-.41-1.1-.13-2.33-.2t-2.55-.12q-1.31-.05-2.55-.21-1.09.61-1.77 1.43-.67.82-.67 1.91 0 .71.36 1.34.35.62 1.14 1.07.78.45 2.02.7 1.25.25 3.05.25 1.83 0 3.15-.28 1.33-.27 2.19-.76.86-.49 1.26-1.17.4-.68.4-1.47Zm-1.3-27.48h7.82v2.44q0 1.16-1.41 1.43l-2.44.45q.56 1.4.56 3.07 0 2.02-.81 3.65t-2.24 2.76q-1.43 1.14-3.38 1.77-1.94.62-4.2.62-.79 0-1.53-.08-.75-.08-1.46-.21-1.27.77-1.27 1.72 0 .82.75 1.21.76.38 2 .54 1.25.16 2.84.2 1.59.04 3.26.17 1.67.13 3.26.46 1.59.34 2.83 1.05 1.25.72 2 1.95.76 1.23.76 3.17 0 1.8-.89 3.49-.89 1.7-2.57 3.03-1.68 1.32-4.13 2.13-2.46.81-5.58.81-3.08 0-5.36-.6-2.27-.6-3.78-1.59-1.52-.99-2.26-2.29-.74-1.3-.74-2.71 0-1.9 1.15-3.19 1.16-1.28 3.17-2.05-1.09-.56-1.72-1.49-.64-.92-.64-2.43 0-.61.23-1.26.22-.65.66-1.29.44-.63 1.1-1.2.66-.57 1.56-1.02-2.06-1.12-3.24-2.97-1.18-1.86-1.18-4.35 0-2.01.81-3.64.8-1.63 2.25-2.78 1.44-1.16 3.42-1.77 1.97-.61 4.3-.61 1.75 0 3.29.36t2.81 1.05Zm17.12 9.54h12.35q0-1.27-.36-2.4t-1.08-1.97q-.71-.85-1.81-1.34-1.1-.49-2.56-.49-2.83 0-4.46 1.61-1.63 1.62-2.08 4.59Zm16.69 3.95h-16.83q.16 2.09.75 3.61.58 1.53 1.53 2.52.96 1 2.27 1.49t2.9.49q1.59 0 2.74-.38 1.16-.37 2.02-.82.86-.45 1.51-.82.65-.37 1.26-.37.82 0 1.22.61l1.88 2.39q-1.09 1.27-2.44 2.13-1.35.86-2.82 1.38-1.47.51-3 .73-1.52.21-2.95.21-2.84 0-5.28-.94-2.43-.94-4.24-2.79-1.8-1.84-2.83-4.55-1.03-2.72-1.03-6.3 0-2.78.9-5.23.9-2.45 2.58-4.27 1.68-1.81 4.11-2.87 2.42-1.06 5.47-1.06 2.57 0 4.74.82 2.18.82 3.74 2.4 1.56 1.57 2.45 3.87.89 2.29.89 5.23 0 1.48-.32 2t-1.22.52Z"/></svg>